<?xml version="1.0" standalone="no"?>
<!DOCTYPE svg PUBLIC "-//W3C//DTD SVG 20010904//EN"
 "http://www.w3.org/TR/2001/REC-SVG-20010904/DTD/svg10.dtd">
<svg version="1.0" xmlns="http://www.w3.org/2000/svg"
 width="186.000000pt" height="186.000000pt" viewBox="0 0 186.000000 186.000000"
 preserveAspectRatio="xMidYMid meet">
<metadata>
Created by potrace 1.14, written by Peter Selinger 2001-2017
</metadata>
<g transform="translate(0.000000,186.000000) scale(0.100000,-0.100000)"
fill="#000000" stroke="none">
<path d="M908 1719 c-29 -11 -42 -45 -32 -85 9 -34 57 -55 96 -42 31 11 30 9
33 63 3 63 -33 87 -97 64z"/>
<path d="M485 1640 c-11 -4 -23 -6 -27 -3 -17 9 -40 -47 -34 -82 8 -40 39 -59
83 -50 36 6 46 18 48 62 4 54 -29 88 -70 73z"/>
<path d="M1346 1627 c-21 -15 -29 -76 -13 -98 15 -19 62 -32 88 -24 22 7 43
49 40 80 -5 45 -75 71 -115 42z"/>
<path d="M95 1460 c-42 -16 -53 -50 -33 -103 20 -51 104 -47 122 6 20 57 -36
117 -89 97z"/>
<path d="M1742 1462 c-28 -4 -56 -56 -48 -88 9 -34 49 -57 86 -49 35 8 47 27
46 74 -1 28 -7 38 -31 51 -16 9 -40 15 -53 12z"/>
<path d="M1306 1231 c-40 -124 -115 -258 -183 -331 -18 -19 -33 -39 -33 -45
-1 -32 -88 160 -95 210 -2 11 -4 22 -6 25 -1 3 -3 10 -4 15 -2 6 -4 13 -5 18
-1 4 -3 10 -4 15 -24 117 -30 134 -37 114 -5 -12 -10 -34 -13 -49 -2 -16 -5
-28 -6 -28 -1 0 -3 -9 -5 -20 -1 -11 -5 -36 -8 -55 -8 -49 -56 -164 -90 -213
l-20 -29 -35 39 c-46 50 -102 137 -126 193 -10 25 -22 54 -27 65 -18 43 -32
80 -33 89 -1 5 -6 11 -13 13 -8 3 -9 -6 -3 -31 4 -20 5 -36 1 -36 -3 0 -7 -21
-7 -48 -2 -52 -12 -146 -20 -183 -2 -13 -7 -44 -11 -69 -6 -46 -21 -95 -22
-72 -1 6 -8 12 -16 12 -8 0 -15 4 -15 8 0 4 -12 15 -27 24 -42 25 -161 145
-207 208 l-18 25 6 -35 c9 -54 15 -80 20 -98 3 -9 8 -33 11 -52 11 -69 39
-155 56 -174 17 -18 20 -17 101 18 46 19 93 37 104 39 10 1 24 5 29 9 6 3 32
9 59 12 27 4 53 9 57 11 39 25 541 24 580 -1 4 -2 24 -6 45 -10 22 -3 71 -17
109 -31 39 -13 76 -25 83 -25 6 -1 12 -6 12 -11 0 -6 3 -7 6 -4 4 4 19 -2 33
-12 22 -16 28 -16 39 -5 6 7 12 18 12 24 0 5 5 10 12 10 6 0 9 3 5 6 -3 3 1
24 9 46 8 23 16 50 19 62 10 48 14 69 19 84 3 9 8 33 10 52 3 19 7 46 10 60 5
21 0 17 -31 -20 -59 -71 -191 -198 -223 -215 -27 -14 -30 -14 -39 4 -6 10 -8
20 -6 23 2 2 0 20 -5 39 -18 69 -29 179 -30 297 -1 45 -3 82 -4 82 -2 0 -11
-22 -20 -49z"/>
<path d="M786 742 c-2 -1 -25 -5 -52 -7 -77 -8 -196 -36 -236 -56 -40 -20 -59
-56 -37 -70 13 -8 29 -7 269 7 162 10 295 9 450 -1 162 -11 232 -13 247 -8 23
9 8 46 -27 68 -19 12 -42 22 -50 23 -8 0 -33 5 -55 11 -38 9 -56 12 -190 27
-59 7 -314 12 -319 6z"/>
<path d="M807 524 c-1 -1 -54 -5 -117 -9 -63 -4 -126 -8 -140 -10 -14 -2 -33
-3 -42 -4 -15 -1 -16 -4 -4 -33 8 -18 13 -58 12 -90 -2 -52 -1 -56 18 -52 11
2 45 6 76 9 30 3 69 8 85 10 38 5 450 6 490 1 17 -2 56 -7 89 -10 32 -3 67 -8
77 -11 17 -6 19 0 19 54 0 33 5 72 10 87 6 15 9 28 8 29 -5 4 -115 16 -198 21
-73 5 -379 11 -383 8z"/>
<path d="M796 253 c-1 -1 -46 -4 -101 -7 -134 -7 -178 -18 -205 -51 -11 -14
-11 -19 6 -36 11 -11 33 -22 49 -25 16 -3 32 -7 35 -9 38 -24 604 -24 720 0
14 3 36 7 49 10 35 7 54 29 46 54 -8 27 -82 49 -195 57 -79 6 -399 12 -404 7z"/>
</g>
</svg>
